# File created by Blade
# Date/Time:  Tue Sep 30 19:36:50 2014
#---------------------------------------------------------
:version 1.10
:name HOM
:units
  mass 1.0
  length 1.000000
  angle deg
:documentation
     Acclaim Skeleton File
:root
   axis xyz
   order TX TY TZ RX RY RZ
   position 0.000000 0.000000 0.000000
   orientation 0 0 0
:bonedata
   begin
      id 1
      name Spine_dum
      direction 0.000000 1.000000 0.000000
      length 3.241213
      axis 0.0 0.0 0.0 xyz
   end
   begin
      id 2
      name LeftUpLeg_dum
      direction 1.000000 0.000000 0.000000
      length 3.434019
      axis 0.0 0.0 0.0 xyz
   end
   begin
      id 3
      name RightUpLeg_dum
      direction -1.000000 0.000000 0.000000
      length 3.434019
      axis 0.0 0.0 0.0 xyz
   end
   begin
      id 4
      name Spine
      direction 0.000000 1.000000 0.000000
      length 0.000000
      axis 0.0 0.0 0.0 xyz
      dof rx ry rz
   end
   begin
      id 5
      name Spine_dum1
      direction 0.000000 1.000000 0.000000
      length 18.382958
      axis 0.0 0.0 0.0 xyz
   end
   begin
      id 6
      name Spine_dum2
      direction 0.000000 1.000000 0.000000
      length 12.828261
      axis 0.0 0.0 0.0 xyz
   end
   begin
      id 7
      name Spine_dum3
      direction 0.000000 1.000000 0.000000
      length 12.828261
      axis 0.0 0.0 0.0 xyz
   end
   begin
      id 8
      name Head
      direction 0.000000 1.000000 0.000000
      length 4.527550
      axis 0.0 0.0 0.0 xyz
      dof rx ry rz
   end
   begin
      id 9
      name LeftShoulder
      direction 1.000000 0.000000 0.000000
      length 7.748055
      axis 0.0 0.0 -90.0 xyz
      dof rx ry rz
   end
   begin
      id 10
      name LeftArm
      direction 1.000000 0.000000 0.000000
      length 10.635614
      axis 0.0 0.0 -90.0 xyz
      dof rx ry rz
   end
   begin
      id 11
      name LeftForeArm
      direction 1.000000 0.000000 0.000000
      length 8.346755
      axis 0.0 0.0 -90.0 xyz
      dof ry rz rx
   end
   begin
      id 12
      name LeftHand
      direction 0.000000 0.000000 0.000000
      length 0.000000
      axis 0.0 0.0 -90.0 xyz
      dof rx ry rz
   end
   begin
      id 13
      name LeftHand_dum1
      direction 0.000000 0.000000 0.000000
      length 0.000000
      axis 0.0 0.0 -90.0 xyz
   end
   begin
      id 14
      name LeftHand_dum2
      direction 1.000000 0.000000 0.000000
      length 3.937000
      axis 0.0 0.0 -90.0 xyz
   end
   begin
      id 15
      name LeftHandThumb1
      direction 0.000000 0.000000 1.000000
      length 3.937000
      axis 0.0 0.0 -90.0 xyz
      dof rx rz ry
   end
   begin
      id 16
      name RightShoulder
      direction -1.000000 0.000000 0.000000
      length 7.748055
      axis 0.0 0.0 90.0 xyz
      dof rx ry rz
   end
   begin
      id 17
      name RightArm
      direction -1.000000 0.000000 0.000000
      length 10.635614
      axis 0.0 0.0 90.0 xyz
      dof rx ry rz
   end
   begin
      id 18
      name RightForeArm
      direction -1.000000 0.000000 0.000000
      length 8.346755
      axis 0.0 0.0 90.0 xyz
      dof ry rz rx
   end
   begin
      id 19
      name RightHand
      direction 0.000000 0.000000 0.000000
      length 0.000000
      axis 0.0 0.0 90.0 xyz
      dof rx ry rz
   end
   begin
      id 20
      name RightHand_dum1
      direction 0.000000 0.000000 0.000000
      length 0.000000
      axis 0.0 0.0 90.0 xyz
   end
   begin
      id 21
      name RightHand_dum2
      direction -1.000000 0.000000 0.000000
      length 3.937000
      axis 0.0 0.0 90.0 xyz
   end
   begin
      id 22
      name RightHandThumb1
      direction 0.000000 0.000000 1.000000
      length 3.937000
      axis 0.0 0.0 90.0 xyz
      dof rx rz ry
   end
   begin
      id 23
      name LeftUpLeg
      direction 0.000000 -1.000000 0.000000
      length 15.713025
      axis 0.0 0.0 0.0 xyz
      dof rx ry rz
   end
   begin
      id 24
      name LeftLeg
      direction 0.000000 -1.000000 0.000000
      length 14.435119
      axis 0.0 0.0 0.0 xyz
      dof rx ry rz
   end
   begin
      id 25
      name LeftFoot
      direction 0.000000 -0.258819 0.965926
      length 4.938895
      axis 15.0 0.0 0.0 xyz
      dof rx ry rz
   end
   begin
      id 26
      name LeftToeBase
      direction 0.000000 0.000000 1.000000
      length 2.952750
      axis 0.0 0.0 0.0 xyz
      dof rx ry rz
   end
   begin
      id 27
      name RightUpLeg
      direction 0.000000 -1.000000 0.000000
      length 15.713025
      axis 0.0 0.0 0.0 xyz
      dof rx ry rz
   end
   begin
      id 28
      name RightLeg
      direction 0.000000 -1.000000 0.000000
      length 14.435119
      axis 0.0 0.0 0.0 xyz
      dof rx ry rz
   end
   begin
      id 29
      name RightFoot
      direction 0.000000 -0.258819 0.965926
      length 4.938895
      axis 15.0 0.0 0.0 xyz
      dof rx ry rz
   end
   begin
      id 30
      name RightToeBase
      direction 0.000000 0.000000 1.000000
      length 2.952750
      axis 0.0 0.0 0.0 xyz
      dof rx ry rz
   end
:hierarchy
   begin
      root Spine_dum LeftUpLeg_dum RightUpLeg_dum
      Spine_dum Spine
      LeftUpLeg_dum LeftUpLeg
      RightUpLeg_dum RightUpLeg
      Spine Spine_dum1 Spine_dum2 Spine_dum3
      Spine_dum1 Head
      Spine_dum2 LeftShoulder
      Spine_dum3 RightShoulder
      LeftShoulder LeftArm
      LeftArm LeftForeArm
      LeftForeArm LeftHand
      LeftHand LeftHand_dum1 LeftHand_dum2
      LeftHand_dum1 LeftHandThumb1
      RightShoulder RightArm
      RightArm RightForeArm
      RightForeArm RightHand
      RightHand RightHand_dum1 RightHand_dum2
      RightHand_dum1 RightHandThumb1
      LeftUpLeg LeftLeg
      LeftLeg LeftFoot
      LeftFoot LeftToeBase
      RightUpLeg RightLeg
      RightLeg RightFoot
      RightFoot RightToeBase
   end

# File created by Blade
# Date/Time:  Tue Sep 23 19:06:47 2014
# Frame Rate: 120.000 fps
#------------------------------------------------------
:FULLY-SPECIFIED
:DEGREES
244
root 1.969675 32.149672 -7.741402 25.505247 -9.618100 -27.229464
Spine 1.741218 26.079076 15.814760
Head -42.028770 -5.435231 4.167136
LeftShoulder -23.209103 44.005467 20.074983
LeftArm 54.147322 -28.872485 -61.915884
LeftForeArm 94.485082 -0.000000 -0.818997
LeftHand -15.958998 -0.000000 64.604732
LeftHandThumb1 -26.253704 0.000000 33.147579
RightShoulder 5.051193 -35.142066 -8.231405
RightArm 76.391331 34.417509 118.653035
RightForeArm 78.468589 -0.000000 27.365621
RightHand -1.804311 -0.000000 29.968636
RightHandThumb1 -24.326973 -0.000000 -32.862282
LeftUpLeg -40.907670 10.545370 18.411793
LeftLeg 39.401488 -0.000000 -0.000000
LeftFoot -18.720120 12.524583 3.402236
LeftToeBase 0.985882 -0.000000 -0.000000
RightUpLeg -155.782624 -11.763076 34.149773
RightLeg 93.213113 -0.000000 -0.000000
RightFoot 37.375430 -3.089730 18.389577
RightToeBase 37.395602 -0.000000 -0.000000
245
root 1.971050 32.157739 -7.721113 26.179967 -9.707122 -27.335840
Spine 0.603696 26.160578 15.399321
Head -41.289225 -5.383468 4.139426
LeftShoulder -23.180096 43.963938 20.345200
LeftArm 54.039198 -29.332321 -61.828595
LeftForeArm 94.392830 -0.000000 -1.447764
LeftHand -15.175586 -0.000000 64.256460
LeftHandThumb1 -26.253704 0.000000 33.147579
RightShoulder 4.829269 -34.902678 -8.133359
RightArm 76.962480 34.447756 119.743843
RightForeArm 77.130282 -0.000000 27.523383
RightHand -2.170855 -0.000000 29.649187
RightHandThumb1 -24.326973 -0.000000 -32.862282
LeftUpLeg -41.426505 10.608265 18.432742
LeftLeg 39.369831 -0.000000 -0.000000
LeftFoot -18.610620 12.908741 3.613635
LeftToeBase 0.935403 -0.000000 -0.000000
RightUpLeg -156.600812 -11.373014 34.442068
RightLeg 92.692488 -0.000000 -0.000000
RightFoot 38.112881 -2.726640 19.128706
RightToeBase 37.064467 -0.000000 -0.000000
246
root 1.970541 32.166853 -7.693337 26.603092 -9.846900 -27.474379
Spine -0.213245 26.223878 15.134073
Head -40.566635 -5.290910 4.116233
LeftShoulder -23.167554 43.914618 20.567640
LeftArm 53.979672 -29.844084 -61.683537
LeftForeArm 94.881822 -0.000000 -2.243266
LeftHand -15.041718 -0.000000 64.123586
LeftHandThumb1 -26.253704 0.000000 33.147579
RightShoulder 4.591552 -34.684429 -8.003630
RightArm 77.175827 34.506715 120.024327
RightForeArm 76.302741 -0.000000 27.688706
RightHand -2.502949 -0.000000 29.653962
RightHandThumb1 -24.326973 -0.000000 -32.862282
LeftUpLeg -41.641356 10.666952 18.509420
LeftLeg 39.317470 -0.000000 -0.000000
LeftFoot -18.579539 13.242774 3.774515
LeftToeBase 0.924889 -0.000000 -0.000000
RightUpLeg -157.199806 -11.042342 34.695218
RightLeg 92.196811 -0.000000 -0.000000
RightFoot 38.674267 -2.453364 19.893096
RightToeBase 36.818739 -0.000000 -0.000000
247
root 1.972798 32.176284 -7.665941 27.108106 -10.012768 -27.576445
Spine -1.144695 26.264911 14.764376
Head -39.831651 -5.188673 4.205280
LeftShoulder -23.150625 43.830625 20.879766
LeftArm 53.762356 -30.374338 -61.591808
LeftForeArm 94.617085 -0.000000 -2.821439
LeftHand -14.215116 -0.000000 63.747766
LeftHandThumb1 -26.253704 0.000000 33.147579
RightShoulder 4.432851 -34.475483 -7.942739
RightArm 77.155696 34.573871 119.887333
RightForeArm 75.760234 0.000000 27.823298
RightHand -2.904905 -0.000000 29.646199
RightHandThumb1 -24.326973 -0.000000 -32.862282
LeftUpLeg -41.921705 10.708771 18.541453
LeftLeg 39.242653 -0.000000 -0.000000
LeftFoot -18.522151 13.619456 3.946349
LeftToeBase 0.914652 -0.000000 -0.000000
RightUpLeg -157.888404 -10.617846 34.925874
RightLeg 91.664314 -0.000000 -0.000000
RightFoot 39.183757 -2.081000 20.423676
RightToeBase 36.425194 -0.000000 -0.000000
248
root 1.969696 32.187125 -7.636690 27.515403 -10.214737 -27.699469
Spine -1.952574 26.371890 14.436931
Head -39.087661 -5.100662 4.326736
LeftShoulder -23.140676 43.827107 21.128727
LeftArm 53.738781 -31.029232 -61.513469
LeftForeArm 94.779048 -0.000000 -3.530587
LeftHand -13.846809 -0.000000 63.553913
LeftHandThumb1 -26.253704 0.000000 33.147579
RightShoulder 4.239186 -34.333737 -7.860924
RightArm 77.294146 34.644708 119.986867
RightForeArm 74.986872 -0.000000 28.077383
RightHand -3.037005 -0.000000 29.591276
RightHandThumb1 -24.326973 -0.000000 -32.862282
LeftUpLeg -42.084867 10.800910 18.597308
LeftLeg 39.179998 -0.000000 -0.000000
LeftFoot -18.507217 13.952258 4.054023
LeftToeBase 0.941702 -0.000000 -0.000000
RightUpLeg -158.480354 -10.211739 35.098777
RightLeg 91.135519 -0.000000 -0.000000
RightFoot 39.580297 -1.660214 20.929310
RightToeBase 35.672716 -0.000000 -0.000000
249
root 1.965582 32.200842 -7.614178 28.078993 -10.441127 -27.826705
Spine -2.928913 26.474159 13.993961
Head -38.373457 -4.994915 4.583876
LeftShoulder -23.183455 43.768760 21.434966
LeftArm 53.666508 -31.732980 -61.503259
LeftForeArm 94.793947 -0.000000 -4.219805
LeftHand -13.359662 -0.000000 63.404841
LeftHandThumb1 -26.253704 0.000000 33.147579
RightShoulder 4.105005 -34.247373 -7.811459
RightArm 77.436027 34.638788 120.005756
RightForeArm 74.613020 -0.000000 28.355368
RightHand -3.216009 -0.000000 29.554274
RightHandThumb1 -24.326973 -0.000000 -32.862282
LeftUpLeg -42.397364 10.972025 18.638160
LeftLeg 39.123471 -0.000000 -0.000000
LeftFoot -18.454764 14.180951 4.163284
LeftToeBase 0.940351 -0.000000 -0.000000
RightUpLeg -159.180535 -9.698936 35.240105
RightLeg 90.564595 -0.000000 -0.000000
RightFoot 39.842326 -1.378215 21.431961
RightToeBase 35.167768 -0.000000 -0.000000
250
root 1.960542 32.215932 -7.587308 28.581658 -10.708017 -27.986751
Spine -3.833033 26.635015 13.590403
Head -37.622775 -4.925520 4.858981
LeftShoulder -23.181645 43.689804 21.782559
LeftArm 53.546161 -32.412422 -61.409745
LeftForeArm 94.861664 0.000000 -4.870258
LeftHand -13.186988 -0.000000 63.271963
LeftHandThumb1 -26.253704 0.000000 33.147579
RightShoulder 3.923034 -34.083209 -7.736172
RightArm 77.551546 34.682756 120.090529
RightForeArm 74.141723 -0.000000 28.620385
RightHand -3.267741 0.000000 29.415177
RightHandThumb1 -24.326973 -0.000000 -32.862282
LeftUpLeg -42.637385 11.227983 18.673683
LeftLeg 39.097072 -0.000000 -0.000000
LeftFoot -18.436753 14.313590 4.165693
LeftToeBase 0.918599 -0.000000 -0.000000
RightUpLeg -159.830853 -9.138986 35.394400
RightLeg 89.994696 -0.000000 -0.000000
RightFoot 40.012510 -1.146254 21.460302
RightToeBase 34.406551 -0.000000 -0.000000
251
root 1.953768 32.229790 -7.558188 29.024811 -10.991801 -28.095993
Spine -4.688905 26.783049 13.166614
Head -36.837990 -4.818136 5.105884
LeftShoulder -23.084083 43.635078 22.155446
LeftArm 53.414302 -33.268017 -61.397210
LeftForeArm 94.774483 -0.000000 -5.484988
LeftHand -12.956715 -0.000000 63.159443
LeftHandThumb1 -26.253704 0.000000 33.147579
RightShoulder 3.797662 -33.964184 -7.682523
RightArm 77.770928 34.744664 120.205618
RightForeArm 73.812106 -0.000000 28.851463
RightHand -3.345061 -0.000000 29.592709
RightHandThumb1 -24.326973 -0.000000 -32.862282
LeftUpLeg -42.807126 11.414737 18.687081
LeftLeg 39.045401 -0.000000 -0.000000
LeftFoot -18.418860 14.521552 4.154679
LeftToeBase 0.892433 -0.000000 -0.000000
RightUpLeg -160.427546 -8.704187 35.401425
RightLeg 89.398474 -0.000000 -0.000000
RightFoot 39.851206 -0.927785 21.638306
RightToeBase 33.929059 -0.000000 -0.000000
252
root 1.940424 32.248550 -7.539061 29.737914 -11.305135 -28.283593
Spine -5.863784 27.034681 12.573062
Head -36.051026 -4.817652 5.607435
LeftShoulder -23.129409 43.684437 22.575910
LeftArm 53.537368 -34.100363 -61.489750
LeftForeArm 95.105808 -0.000000 -6.232682
LeftHand -13.127897 -0.000000 63.297003
LeftHandThumb1 -26.253704 0.000000 33.147579
RightShoulder 3.710585 -33.804309 -7.478878
RightArm 77.629994 34.920054 119.589683
RightForeArm 74.188719 -0.000000 29.202248
RightHand -3.369411 -0.000000 29.469240
RightHandThumb1 -24.326973 -0.000000 -32.862282
LeftUpLeg -43.211974 11.806990 18.696469
LeftLeg 38.984132 -0.000000 -0.000000
LeftFoot -18.395877 14.670480 4.146115
LeftToeBase 0.886823 -0.000000 -0.000000
RightUpLeg -161.133343 -8.106246 35.410697
RightLeg 88.713032 -0.000000 -0.000000
RightFoot 39.481926 -0.911942 21.738132
RightToeBase 33.468225 -0.000000 -0.000000
253
root 1.931722 32.265372 -7.507434 30.048350 -11.572159 -28.389166
Spine -6.578040 27.097094 12.195078
Head -35.284264 -4.751112 5.927917
LeftShoulder -23.078128 43.516819 23.032664
LeftArm 53.362683 -34.969420 -61.538346
LeftForeArm 94.759001 0.000000 -6.701054
LeftHand -12.780627 -0.000000 63.299820
LeftHandThumb1 -26.253704 0.000000 33.147579
RightShoulder 3.603570 -33.579268 -7.388913
RightArm 77.657862 35.051079 119.316622
RightForeArm 74.362867 -0.000000 29.435857
RightHand -3.409462 -0.000000 29.323196
RightHandThumb1 -24.326973 -0.000000 -32.862282
LeftUpLeg -43.245171 11.939611 18.736825
LeftLeg 38.914322 -0.000000 -0.000000
LeftFoot -18.380090 14.853927 4.071523
LeftToeBase 0.935663 -0.000000 -0.000000
RightUpLeg -161.631862 -7.826628 35.349692
RightLeg 88.037462 -0.000000 -0.000000
RightFoot 39.049910 -1.230225 21.906537
RightToeBase 33.077193 -0.000000 -0.000000
